<?xml version="1.0"?>
<svg xmlns="http://www.w3.org/2000/svg" viewBox="0 0 50 50">
    <path style="line-height:normal;text-indent:0;text-align:start;text-decoration-line:none;text-decoration-style:solid;text-decoration-color:#000;text-transform:none;block-progression:tb;isolation:auto;mix-blend-mode:normal" d="M 26 0 A 1.0001 1.0001 0 0 0 25.642578 0.072265625 C 24.721376 0.16064569 23.876577 0.51673447 23.285156 1.140625 C 22.614211 1.8484059 22.222565 2.7788527 22.019531 3.8066406 A 1.0001 1.0001 0 0 0 22.011719 3.84375 L 19.679688 18.617188 L 15.955078 6.7011719 L 15.966797 6.7480469 C 15.672894 5.6198228 15.197372 4.7000446 14.515625 4.0390625 C 13.833878 3.3780804 12.936289 3.0140611 12.015625 3 A 1.0001 1.0001 0 0 0 12 3 L 11.576172 3 C 10.565896 2.9865977 9.523796 3.3091556 8.8007812 4.1054688 C 8.0777667 4.9017818 7.7892809 6.1085381 8.0371094 7.4707031 A 1.0001 1.0001 0 0 0 8.0507812 7.5371094 L 12.851562 26.541016 C 12.724175 26.605964 12.604343 26.648926 12.474609 26.726562 C 11.141132 27.524562 9.6781238 29.100451 9.2109375 31.769531 C 8.8723834 33.702159 9.2494625 35.557971 9.515625 36.453125 L 9.5175781 36.457031 C 9.5178346 36.457893 9.5173219 36.460037 9.5175781 36.460938 L 12.060547 45.253906 C 12.988368 48.459738 16.400273 50 19.480469 50 L 32 50 C 36.958516 50 41 45.958516 41 41 L 41 30 C 41 26.205576 39.41301 23.400887 39 22.728516 L 39 20 C 39 17.802666 37.197334 16 35 16 C 34.252835 16 33.559529 16.220531 32.958984 16.582031 C 32.75606 14.711153 31.241272 13.250145 29.357422 13.072266 A 1.0001 1.0001 0 0 0 29.103516 13.007812 L 29.994141 4.0996094 A 1.0001 1.0001 0 0 0 30 4 C 30 2.7761667 29.557113 1.7120691 28.798828 1.0136719 C 28.040543 0.31527467 27.029667 -1.4802974e-16 26 0 z M 26 2 C 26.627333 2 27.115894 2.1847253 27.443359 2.4863281 C 27.769062 2.7863076 27.99365 3.2238275 27.996094 3.9921875 L 27.042969 13.537109 C 25.832156 14.22733 25 15.515934 25 17 L 25 24.546875 L 15.076172 25.830078 C 15.076172 25.830078 14.939301 25.847506 14.746094 25.880859 L 10.005859 7.1054688 C 9.8408951 6.1846024 10.026484 5.7317657 10.28125 5.4511719 C 10.537235 5.169235 10.976104 4.9924023 11.548828 5 A 1.0001 1.0001 0 0 0 11.5625 5 L 11.984375 5 C 12.438711 5.00694 12.780747 5.1427946 13.125 5.4765625 C 13.469253 5.8103304 13.806106 6.3801772 14.033203 7.2519531 A 1.0001 1.0001 0 0 0 14.044922 7.2988281 L 19.044922 23.298828 A 1.0007358 1.0007358 0 0 0 19.056641 23.332031 A 1.0005565 1.0005565 0 0 0 19.0625 23.347656 A 1.0007358 1.0007358 0 0 0 19.085938 23.404297 A 1.0005565 1.0005565 0 0 0 19.117188 23.46875 A 1.0007358 1.0007358 0 0 0 19.123047 23.482422 A 1.0005565 1.0005565 0 0 0 19.160156 23.544922 A 1.0007358 1.0007358 0 0 0 19.193359 23.589844 A 1.0005565 1.0005565 0 0 0 19.212891 23.615234 A 1.0007358 1.0007358 0 0 0 19.251953 23.662109 A 1.0005565 1.0005565 0 0 0 19.28125 23.695312 A 1.0007358 1.0007358 0 0 0 19.304688 23.720703 A 1.0005565 1.0005565 0 0 0 19.460938 23.841797 A 1.0007358 1.0007358 0 0 0 19.462891 23.84375 A 1.0005565 1.0005565 0 0 0 19.464844 23.84375 A 1.0005565 1.0005565 0 0 0 19.535156 23.884766 A 1.0007358 1.0007358 0 0 0 19.566406 23.900391 A 1.0005565 1.0005565 0 0 0 19.609375 23.919922 A 1.0007358 1.0007358 0 0 0 19.658203 23.939453 A 1.0005565 1.0005565 0 0 0 19.714844 23.958984 A 1.0007358 1.0007358 0 0 0 19.75 23.966797 A 1.0005565 1.0005565 0 0 0 19.810547 23.980469 A 1.0007358 1.0007358 0 0 0 19.851562 23.988281 A 1.0005565 1.0005565 0 0 0 19.900391 23.994141 A 1.0007358 1.0007358 0 0 0 19.953125 23.998047 A 1.0005565 1.0005565 0 0 0 20.001953 24 A 1.0007358 1.0007358 0 0 0 20.052734 23.998047 A 1.0005565 1.0005565 0 0 0 20.101562 23.994141 A 1.0007358 1.0007358 0 0 0 20.152344 23.988281 A 1.0005565 1.0005565 0 0 0 20.191406 23.982422 A 1.0007358 1.0007358 0 0 0 20.269531 23.962891 A 1.0005565 1.0005565 0 0 0 20.326172 23.945312 A 1.0007358 1.0007358 0 0 0 20.363281 23.931641 A 1.0005565 1.0005565 0 0 0 20.382812 23.921875 A 1.0007358 1.0007358 0 0 0 20.455078 23.890625 A 1.0005565 1.0005565 0 0 0 20.507812 23.861328 A 1.0007358 1.0007358 0 0 0 20.515625 23.855469 A 1.0005565 1.0005565 0 0 0 20.591797 23.806641 A 1.0007358 1.0007358 0 0 0 20.623047 23.783203 A 1.0005565 1.0005565 0 0 0 20.669922 23.744141 A 1.0007358 1.0007358 0 0 0 20.699219 23.716797 A 1.0005565 1.0005565 0 0 0 20.714844 23.699219 A 1.0007358 1.0007358 0 0 0 20.761719 23.646484 A 1.0005565 1.0005565 0 0 0 20.802734 23.595703 A 1.0007358 1.0007358 0 0 0 20.808594 23.585938 A 1.0005565 1.0005565 0 0 0 20.841797 23.541016 A 1.0007358 1.0007358 0 0 0 20.878906 23.478516 A 1.0005565 1.0005565 0 0 0 20.90625 23.423828 A 1.0007358 1.0007358 0 0 0 20.912109 23.408203 A 1.0005565 1.0005565 0 0 0 20.943359 23.332031 A 1.0007358 1.0007358 0 0 0 20.945312 23.328125 A 1.0005565 1.0005565 0 0 0 20.964844 23.259766 A 1.0007358 1.0007358 0 0 0 20.980469 23.197266 A 1.0005565 1.0005565 0 0 0 20.988281 23.15625 L 23.984375 4.1875 C 24.135732 3.4276387 24.411255 2.8585446 24.736328 2.515625 C 25.062633 2.1714059 25.414509 2 26 2 z M 29 15 C 30.116666 15 31 15.883334 31 17 L 31 21 L 31 25.984375 C 30.062684 24.792866 28.560077 24.131927 27 24.292969 L 27 17 C 27 15.883334 27.883334 15 29 15 z M 35 18 C 36.116666 18 37 18.883334 37 20 L 37 22.871094 A 1.0001 1.0001 0 0 0 37 23.101562 L 37 27 C 37 28.116666 36.116666 29 35 29 C 33.883334 29 33 28.116666 33 27 L 33 20 C 33 18.883334 33.883334 18 35 18 z M 27.390625 26.246094 C 28.558224 26.205309 29.614069 26.980881 29.896484 28.166016 C 30.072097 28.903354 29.987054 29.466622 29.697266 29.951172 C 29.408419 30.43414 28.867449 30.881235 27.951172 31.203125 L 19.224609 33.460938 A 1.0001 1.0001 0 0 0 18.597656 34.908203 L 20.191406 37.832031 A 1.0001 1.0001 0 1 0 21.947266 36.875 L 20.966797 35.074219 L 21.199219 35.013672 C 21.703786 35.289432 25.165074 37.323855 26.009766 42.171875 A 1.0002293 1.0002293 0 1 0 27.980469 41.828125 C 27.328461 38.085994 25.230365 35.686839 23.683594 34.371094 L 28.527344 33.119141 A 1.0001 1.0001 0 0 0 28.605469 33.095703 C 29.855696 32.658814 30.837856 31.940013 31.414062 30.976562 C 31.686569 30.520918 31.851168 30.018634 31.927734 29.496094 C 32.593075 30.285906 33.5539 30.824938 34.642578 30.927734 A 1.0001 1.0001 0 0 0 35 31 A 1.0001 1.0001 0 0 0 35.361328 30.925781 C 37.008216 30.768473 38.369756 29.628995 38.824219 28.095703 C 38.925149 28.697536 39 29.326641 39 30 L 39 41 C 39 44.877484 35.877484 48 32 48 L 19.480469 48 C 17.076665 48 14.578646 46.757447 13.982422 44.697266 L 11.4375 35.896484 A 1.0001 1.0001 0 0 0 11.433594 35.888672 C 11.253834 35.285718 10.93088 33.546698 11.181641 32.115234 C 11.554454 29.985314 12.56743 29.00261 13.501953 28.443359 C 14.436476 27.884108 15.228516 27.824219 15.228516 27.824219 A 1.0001 1.0001 0 0 0 15.279297 27.820312 L 26.78125 26.332031 A 1.0001 1.0001 0 0 0 26.884766 26.314453 C 27.054171 26.274106 27.223825 26.25192 27.390625 26.246094 z" font-weight="400" font-family="sans-serif" white-space="normal" overflow="visible"/>
</svg>
